<svg width="49" height="31" viewBox="0 0 49 31" fill="none" xmlns="http://www.w3.org/2000/svg">
<path fill-rule="evenodd" clip-rule="evenodd" d="M35.1714 23.4298C35.1989 23.411 35.2298 23.3973 35.2621 23.3893C43.3979 21.3858 49 17.1815 49 12.3192C49 5.5155 38.031 0 24.5 0C10.969 0 0 5.5155 0 12.3192C0 19.1229 10.969 24.6384 24.5 24.6384C25.2267 24.6384 25.9459 24.6225 26.6565 24.5914C26.8686 24.5821 27.0141 24.804 26.9199 24.9943C26.0484 26.7544 25.1668 28.632 24.4912 30.1099C24.3749 30.3642 24.6664 30.6082 24.8973 30.4504L35.1714 23.4298Z" fill="#8A8AFF"/>
<path fill-rule="evenodd" clip-rule="evenodd" d="M18.6958 6.36725C17.2382 6.36725 16.0566 7.54885 16.0566 9.00642V10.6859C16.0566 12.1435 17.2382 13.3251 18.6958 13.3251H20.6152C20.7386 13.3251 20.8599 13.3166 20.9788 13.3002C20.5539 14.6246 19.6209 16.062 17.7697 17.0339C17.3004 17.2803 17.1197 17.8604 17.3661 18.3297C17.6124 18.799 18.1926 18.9797 18.6619 18.7333C22.3805 16.781 23.2411 13.3441 23.2023 11.21C23.2365 11.0406 23.2544 10.8653 23.2544 10.6859V9.00642C23.2544 7.54885 22.0728 6.36725 20.6152 6.36725H18.6958Z" fill="white"/>
<path fill-rule="evenodd" clip-rule="evenodd" d="M28.3853 6.36725C26.9277 6.36725 25.7461 7.54885 25.7461 9.00642V10.6859C25.7461 12.1435 26.9277 13.3251 28.3853 13.3251H30.3047C30.4281 13.3251 30.5496 13.3166 30.6685 13.3002C30.2436 14.6246 29.3107 16.062 27.4594 17.0339C26.9901 17.2803 26.8094 17.8604 27.0558 18.3297C27.3022 18.799 27.8823 18.9797 28.3516 18.7333C32.0711 16.7806 32.9313 13.3426 32.8921 11.2086C32.926 11.0396 32.9438 10.8648 32.9438 10.6859V9.00642C32.9438 7.54885 31.7622 6.36725 30.3047 6.36725H28.3853Z" fill="white"/>
</svg>
