<svg width="66" height="66" viewBox="0 0 66 66" fill="none" xmlns="http://www.w3.org/2000/svg">
<path d="M29.7358 9.37831C30.6424 6.58798 34.59 6.58799 35.4966 9.37831L39.259 20.9578C39.6645 22.2057 40.8274 23.0506 42.1395 23.0506H54.3149C57.2488 23.0506 58.4686 26.8049 56.095 28.5294L46.2449 35.686C45.1834 36.4572 44.7393 37.8242 45.1447 39.0721L48.9071 50.6516C49.8138 53.4419 46.6201 55.7622 44.2465 54.0377L34.3964 46.8812C33.3349 46.11 31.8975 46.11 30.836 46.8812L20.9859 54.0377C18.6123 55.7622 15.4187 53.4419 16.3253 50.6516L20.0877 39.0721C20.4932 37.8242 20.049 36.4572 18.9875 35.686L9.13737 28.5294C6.76378 26.8049 7.98365 23.0506 10.9176 23.0506H23.093C24.4051 23.0506 25.5679 22.2057 25.9734 20.9578L29.7358 9.37831Z" fill="#FFE600"/>
<path fill-rule="evenodd" clip-rule="evenodd" d="M32.6172 46.2866C33.2416 46.2868 33.8659 46.4796 34.3964 46.865L44.2465 54.0216C46.6201 55.7461 49.8138 53.4258 48.9071 50.6354L45.1447 39.0559C44.7393 37.8081 45.1834 36.441 46.2449 35.6698L56.095 28.5133C58.4686 26.7888 57.2488 23.0344 54.3149 23.0344H42.1394C40.8274 23.0344 39.6645 22.1895 39.259 20.9417L35.4966 9.36216C35.0434 7.96737 33.8304 7.26978 32.6172 7.26941V46.2866Z" fill="#E7D110"/>
<path d="M21.4503 30.7181C20.9265 30.7181 20.502 30.2936 20.502 29.7698C20.502 29.2461 20.9265 28.8215 21.4503 28.8215H27.0893C27.613 28.8215 28.0376 29.2461 28.0376 29.7698C28.0376 30.2936 27.613 30.7181 27.0893 30.7181H26.7336C26.0135 30.7181 25.4297 31.3019 25.4297 32.0221V36.3318C25.4297 36.9724 24.9104 37.4917 24.2698 37.4917C23.6291 37.4917 23.1098 36.9724 23.1098 36.3318V32.0221C23.1098 31.3019 22.526 30.7181 21.8059 30.7181H21.4503Z" fill="#FF2626"/>
<path d="M36.9152 33.1566C36.9152 34.1219 36.7275 34.9361 36.3521 35.5994C35.9768 36.2598 35.4702 36.7607 34.8323 37.1022C34.1945 37.4409 33.4832 37.6103 32.6986 37.6103C31.9084 37.6103 31.1943 37.4395 30.5565 37.098C29.9215 36.7537 29.4163 36.2513 29.0409 35.5909C28.6684 34.9276 28.4821 34.1162 28.4821 33.1566C28.4821 32.1914 28.6684 31.3786 29.0409 30.7181C29.4163 30.0549 29.9215 29.5539 30.5565 29.2153C31.1943 28.8738 31.9084 28.703 32.6986 28.703C33.4832 28.703 34.1945 28.8738 34.8323 29.2153C35.4702 29.5539 35.9768 30.0549 36.3521 30.7181C36.7275 31.3786 36.9152 32.1914 36.9152 33.1566ZM34.4936 33.1566C34.4936 32.6373 34.4245 32.1999 34.2862 31.8443C34.1507 31.4858 33.9489 31.2149 33.6808 31.0314C33.4155 30.8451 33.0881 30.752 32.6986 30.752C32.3092 30.752 31.9804 30.8451 31.7122 31.0314C31.4469 31.2149 31.2451 31.4858 31.1068 31.8443C30.9714 32.1999 30.9036 32.6373 30.9036 33.1566C30.9036 33.6759 30.9714 34.1148 31.1068 34.4732C31.2451 34.8289 31.4469 35.0998 31.7122 35.2861C31.9804 35.4695 32.3092 35.5613 32.6986 35.5613C33.0881 35.5613 33.4155 35.4695 33.6808 35.2861C33.9489 35.0998 34.1507 34.8289 34.2862 34.4732C34.4245 34.1148 34.4936 33.6759 34.4936 33.1566Z" fill="#FF2626"/>
<path d="M39.1812 37.4917C38.5312 37.4917 38.0043 36.9648 38.0043 36.3148V30.3117C38.0043 29.4887 38.6714 28.8215 39.4944 28.8215H41.7467C42.3902 28.8215 42.9532 28.9485 43.4358 29.2026C43.9184 29.4566 44.2938 29.8136 44.5619 30.2736C44.8301 30.7337 44.9641 31.2713 44.9641 31.8866C44.9641 32.5075 44.8258 33.0452 44.5492 33.4995C44.2755 33.9539 43.8902 34.3039 43.3935 34.5495C42.8996 34.795 42.3224 34.9178 41.662 34.9178H40.3411C39.8361 34.9178 39.4267 34.5084 39.4267 34.0033C39.4267 33.4983 39.8361 33.0889 40.3411 33.0889H41.1878C41.4644 33.0889 41.7001 33.0409 41.8948 32.945C42.0924 32.8462 42.2434 32.7065 42.3478 32.5258C42.4551 32.3452 42.5087 32.1321 42.5087 31.8866C42.5087 31.6382 42.4551 31.4265 42.3478 31.2516C42.2434 31.0738 42.0924 30.9383 41.8948 30.8451C41.7001 30.7492 41.4644 30.7012 41.1878 30.7012C40.7296 30.7012 40.3581 31.0727 40.3581 31.531V36.3148C40.3581 36.9648 39.8312 37.4917 39.1812 37.4917Z" fill="#FF2626"/>
<path fill-rule="evenodd" clip-rule="evenodd" d="M32.6167 37.6096C32.644 37.6101 32.6713 37.6103 32.6988 37.6103C33.4834 37.6103 34.1946 37.4409 34.8325 37.1022C35.4703 36.7607 35.9769 36.2598 36.3523 35.5994C36.7277 34.9361 36.9153 34.1219 36.9153 33.1566C36.9153 32.1914 36.7277 31.3786 36.3523 30.7181C35.9769 30.0549 35.4703 29.5539 34.8325 29.2153C34.1946 28.8738 33.4834 28.703 32.6988 28.703C32.6713 28.703 32.644 28.7032 32.6167 28.7036V30.7534C32.6438 30.7525 32.6711 30.752 32.6988 30.752C33.0883 30.752 33.4157 30.8451 33.681 31.0314C33.9491 31.2149 34.1509 31.4858 34.2863 31.8443C34.4246 32.1999 34.4938 32.6373 34.4938 33.1566C34.4938 33.6759 34.4246 34.1148 34.2863 34.4732C34.1509 34.8289 33.9491 35.0998 33.681 35.2861C33.4157 35.4695 33.0883 35.5613 32.6988 35.5613C32.6711 35.5613 32.6438 35.5608 32.6167 35.5599V37.6096ZM38.0044 36.3148C38.0044 36.9648 38.5313 37.4917 39.1813 37.4917C39.8313 37.4917 40.3582 36.9648 40.3582 36.3148V34.9178H41.6621C42.3226 34.9178 42.8997 34.795 43.3936 34.5495C43.8904 34.3039 44.2756 33.9539 44.5494 33.4995C44.826 33.0452 44.9643 32.5075 44.9643 31.8866C44.9643 31.2713 44.8302 30.7337 44.5621 30.2736C44.294 29.8136 43.9186 29.4566 43.436 29.2026C42.9534 28.9485 42.3903 28.8215 41.7468 28.8215H39.4946C38.6716 28.8215 38.0044 29.4887 38.0044 30.3117V36.3148ZM40.3582 33.0889H41.188C41.4646 33.0889 41.7002 33.0409 41.895 32.945C42.0925 32.8462 42.2435 32.7065 42.348 32.5258C42.4552 32.3452 42.5088 32.1321 42.5088 31.8866C42.5088 31.6382 42.4552 31.4265 42.348 31.2516C42.2435 31.0738 42.0925 30.9383 41.895 30.8451C41.7002 30.7492 41.4646 30.7012 41.188 30.7012C40.7297 30.7012 40.3582 31.0727 40.3582 31.531V33.0889Z" fill="#F01C1C"/>
</svg>
