<svg width="121" height="47" viewBox="0 0 121 47" fill="none" xmlns="http://www.w3.org/2000/svg">
<path d="M111.656 46.1373V22.1351H120.07V46.1373H111.656ZM115.863 19.478C114.328 19.478 113.088 19.0499 112.143 18.1937C111.198 17.3375 110.726 16.2747 110.726 15.0052C110.726 13.7357 111.198 12.6729 112.143 11.8167C113.088 10.9606 114.328 10.5325 115.863 10.5325C117.398 10.5325 118.638 10.9458 119.583 11.7724C120.528 12.5696 121 13.6029 121 14.8724C121 16.2009 120.528 17.308 119.583 18.1937C118.668 19.0499 117.428 19.478 115.863 19.478Z" fill="#2626FF"/>
<path d="M111.656 22.1351V46.1373H120.07V22.1351H111.656Z" fill="black"/>
<path d="M102.566 46.5359C99.4954 46.5359 97.104 45.7831 95.3917 44.2774C93.6794 42.7422 92.8232 40.4394 92.8232 37.369V16.7766H101.237V37.2804C101.237 38.1366 101.473 38.8156 101.946 39.3175C102.418 39.7899 103.023 40.0261 103.762 40.0261C104.765 40.0261 105.621 39.7751 106.33 39.2732L108.411 45.1631C107.703 45.6355 106.832 45.975 105.799 46.1816C104.765 46.4178 103.688 46.5359 102.566 46.5359ZM89.3247 29.3092V23.0208H106.729V29.3092H89.3247Z" fill="black"/>
<path d="M76.0127 46.5359C73.1785 46.5359 70.6985 46.0044 68.5729 44.9416C66.4767 43.8493 64.8382 42.3731 63.6573 40.5131C62.5059 38.6237 61.9302 36.4832 61.9302 34.0919C61.9302 31.7005 62.4911 29.5748 63.613 27.7149C64.7644 25.8254 66.3439 24.364 68.3514 23.3307C70.359 22.2679 72.6175 21.7365 75.127 21.7365C77.4889 21.7365 79.644 22.2236 81.5926 23.1978C83.5411 24.1426 85.091 25.5449 86.2425 27.4049C87.3939 29.2648 87.9696 31.5234 87.9696 34.1804C87.9696 34.4757 87.9548 34.8152 87.9253 35.199C87.8957 35.5828 87.8662 35.9371 87.8367 36.2618H68.8386V31.8334H83.364L80.1755 33.0733C80.205 31.981 79.9983 31.0362 79.5555 30.2391C79.1421 29.442 78.5517 28.822 77.7841 28.3791C77.046 27.9363 76.1751 27.7149 75.1713 27.7149C74.1675 27.7149 73.2818 27.9363 72.5142 28.3791C71.7761 28.822 71.2004 29.4567 70.7871 30.2834C70.3738 31.0805 70.1671 32.0253 70.1671 33.1176V34.4019C70.1671 35.5828 70.4033 36.6013 70.8757 37.4575C71.3776 38.3137 72.0861 38.9779 73.0013 39.4503C73.9166 39.8932 75.0089 40.1146 76.2784 40.1146C77.4593 40.1146 78.4631 39.9522 79.2898 39.6275C80.1459 39.2732 80.9873 38.7418 81.814 38.0332L86.2425 42.6388C85.091 43.9083 83.6739 44.8826 81.9911 45.5616C80.3083 46.2111 78.3155 46.5359 76.0127 46.5359Z" fill="black"/>
<path d="M31.0532 46.1373V15.1381H45.2243C48.0585 15.1381 50.4942 15.5957 52.5313 16.5109C54.5979 17.4261 56.1921 18.7546 57.314 20.4965C58.4359 22.2088 58.9968 24.2459 58.9968 26.6078C58.9968 28.9401 58.4359 30.9624 57.314 32.6748C56.1921 34.3576 54.5979 35.6566 52.5313 36.5718C50.4942 37.4575 48.0585 37.9004 45.2243 37.9004H35.9245L39.8216 34.2248V46.1373H31.0532ZM50.2285 46.1373L42.523 34.8447H51.867L59.6168 46.1373H50.2285ZM39.8216 35.1547L35.9245 31.1248H44.6929C46.5233 31.1248 47.8814 30.7263 48.7671 29.9291C49.6823 29.132 50.1399 28.0249 50.1399 26.6078C50.1399 25.1612 49.6823 24.0393 48.7671 23.2422C47.8814 22.445 46.5233 22.0465 44.6929 22.0465H35.9245L39.8216 18.0166V35.1547Z" fill="black"/>
<path d="M0 46.1373V13.4684H8.76836V46.1373H0Z" fill="#2626FF"/>
<path d="M15.5321 46.1373V6.95271H0V1.24277e-05L120.983 0V6.95269L24.3005 6.95271V46.1373H15.5321Z" fill="#2626FF"/>
</svg>
