<svg width="19" height="18" viewBox="0 0 19 18" fill="none" xmlns="http://www.w3.org/2000/svg">
<path fill-rule="evenodd" clip-rule="evenodd" d="M12.0559 2.73511C14.4319 5.06387 14.4701 8.87777 12.1413 11.2537C9.81259 13.6296 5.99868 13.6679 3.62276 11.3391C1.24683 9.01035 1.20859 5.19644 3.53735 2.82052C5.86611 0.444588 9.68001 0.40635 12.0559 2.73511ZM13.2217 11.4215C15.4669 8.67166 15.283 4.61307 12.6983 2.07971C9.96044 -0.603833 5.56549 -0.559771 2.88195 2.17813C0.198406 4.91602 0.242468 9.31097 2.98036 11.9945C5.6509 14.612 9.89795 14.6345 12.5956 12.0933L17.6889 17.1866L18.3379 16.5377L13.2217 11.4215Z" fill="black" fill-opacity="0.9"/>
</svg>
